 0
SECTION
 2
ENTITIES
  0
POLYLINE
 8
LaserWeb
 66
     1
70
    8
 10
0.0
 20
 0.0
 30
0.0
  0
VERTEX
  8
MY3DLAYER
10
-4.22994972382185e-014
20
60.0
30
0.0
 70
     32
  0
VERTEX
  8
MY3DLAYER
10
18.5402455661664
20
60.0
30
0.0
 70
     32
  0
VERTEX
  8
MY3DLAYER
10
18.5402455661664
20
14.774897680764
30
0.0
 70
     32
  0
VERTEX
  8
MY3DLAYER
10
47.4761255115961
20
14.774897680764
30
0.0
 70
     32
  0
VERTEX
  8
MY3DLAYER
10
47.4761255115961
20
-2.29122276707017e-015
30
0.0
 70
     32
  0
VERTEX
  8
MY3DLAYER
10
-4.22994972382185e-014
20
-2.29122276707017e-015
30
0.0
 70
     32
  0
VERTEX
  8
MY3DLAYER
10
-4.22994972382185e-014
20
60.0
30
0.0
 70
     32
  0
SEQEND
  0
POLYLINE
 8
LaserWeb
 66
     1
70
    8
 10
0.0
 20
 0.0
 30
0.0
  0
VERTEX
  8
MY3DLAYER
10
69.9863574351978
20
29.3860845839018
30
0.0
 70
     32
  0
VERTEX
  8
MY3DLAYER
10
54.0654843110504
20
31.0641200545703
30
0.0
 70
     32
  0
VERTEX
  8
MY3DLAYER
10
55.1654160982264
20
34.793656207367
30
0.0
 70
     32
  0
VERTEX
  8
MY3DLAYER
10
56.6643929058663
20
37.6330150068213
30
0.0
 70
     32
  0
VERTEX
  8
MY3DLAYER
10
58.7363574351978
20
39.868690313779
30
0.0
 70
     32
  0
VERTEX
  8
MY3DLAYER
10
61.5552523874488
20
41.787175989086
30
0.0
 70
     32
  0
VERTEX
  8
MY3DLAYER
10
64.2769440654843
20
42.912687585266
30
0.0
 70
     32
  0
VERTEX
  8
MY3DLAYER
10
67.8581173260573
20
43.7517053206003
30
0.0
 70
     32
  0
VERTEX
  8
MY3DLAYER
10
76.5347885402455
20
44.4474761255116
30
0.0
 70
     32
  0
VERTEX
  8
MY3DLAYER
10
83.287858117326
20
44.237721691678
30
0.0
 70
     32
  0
VERTEX
  8
MY3DLAYER
10
88.5675306957708
20
43.6084583901774
30
0.0
 70
     32
  0
VERTEX
  8
MY3DLAYER
10
92.7319236016371
20
42.3141200545703
30
0.0
 70
     32
  0
VERTEX
  8
MY3DLAYER
10
96.1391541609822
20
40.1091405184175
30
0.0
 70
     32
  0
VERTEX
  8
MY3DLAYER
10
98.0422919508867
20
37.8836971350614
30
0.0
 70
     32
  0
VERTEX
  8
MY3DLAYER
10
99.4952251023192
20
34.8908594815825
30
0.0
 70
     32
  0
VERTEX
  8
MY3DLAYER
10
100.416098226467
20
31.5910641200546
30
0.0
 70
     32
  0
VERTEX
  8
MY3DLAYER
10
100.723055934516
20
28.4447476125512
30
0.0
 70
     32
  0
VERTEX
  8
MY3DLAYER
10
100.723055934516
20
9.24965893587994
30
0.0
 70
     32
  0
VERTEX
  8
MY3DLAYER
10
101.111869031378
20
4.4406548431105
30
0.0
 70
     32
  0
VERTEX
  8
MY3DLAYER
10
102.81036834925
20
-2.29122276707017e-015
30
0.0
 70
     32
  0
VERTEX
  8
MY3DLAYER
10
87.1759890859481
20
-2.29122276707017e-015
30
0.0
 70
     32
  0
VERTEX
  8
MY3DLAYER
10
85.9481582537517
20
2.55798090040928
30
0.0
 70
     32
  0
VERTEX
  8
MY3DLAYER
10
85.37517053206
20
5.3206002728513
30
0.0
 70
     32
  0
VERTEX
  8
MY3DLAYER
10
82.1111869031377
20
2.6193724420191
30
0.0
 70
     32
  0
VERTEX
  8
MY3DLAYER
10
78.8676671214188
20
0.818553888130966
30
0.0
 70
     32
  0
VERTEX
  8
MY3DLAYER
10
74.0893587994543
20
-0.532060027285132
30
0.0
 70
     32
  0
VERTEX
  8
MY3DLAYER
10
68.5948158253751
20
-0.982264665757165
30
0.0
 70
     32
  0
VERTEX
  8
MY3DLAYER
10
64.9407401091405
20
-0.757162346521148
30
0.0
 70
     32
  0
VERTEX
  8
MY3DLAYER
10
61.7547748976807
20
-0.0818553888130992
30
0.0
 70
     32
  0
VERTEX
  8
MY3DLAYER
10
59.0369201909959
20
1.04365620736698
30
0.0
 70
     32
  0
VERTEX
  8
MY3DLAYER
10
56.7871759890859
20
2.6193724420191
30
0.0
 70
     32
  0
VERTEX
  8
MY3DLAYER
10
55.0234481582537
20
4.52506821282401
30
0.0
 70
     32
  0
VERTEX
  8
MY3DLAYER
10
53.7636425648022
20
6.64051841746248
30
0.0
 70
     32
  0
VERTEX
  8
MY3DLAYER
10
53.0077592087312
20
8.96572305593451
30
0.0
 70
     32
  0
VERTEX
  8
MY3DLAYER
10
52.7557980900409
20
11.5006821282401
30
0.0
 70
     32
  0
VERTEX
  8
MY3DLAYER
10
53.4822646657571
20
16.0129604365621
30
0.0
 70
     32
  0
VERTEX
  8
MY3DLAYER
10
55.6616643929058
20
19.6452933151432
30
0.0
 70
     32
  0
VERTEX
  8
MY3DLAYER
10
57.4215552523874
20
21.1391541609823
30
0.0
 70
     32
  0
VERTEX
  8
MY3DLAYER
10
59.7953615279672
20
22.4283765347885
30
0.0
 70
     32
  0
VERTEX
  8
MY3DLAYER
10
66.3847203274215
20
24.3929058663029
30
0.0
 70
     32
  0
VERTEX
  8
MY3DLAYER
10
78.5402455661664
20
27.0327421555252
30
0.0
 70
     32
  0
VERTEX
  8
MY3DLAYER
10
84.4338335607094
20
29.0177353342428
30
0.0
 70
     32
  0
VERTEX
  8
MY3DLAYER
10
84.1166439290586
20
31.6268758526603
30
0.0
 70
     32
  0
VERTEX
  8
MY3DLAYER
10
83.1650750341064
20
33.3151432469304
30
0.0
 70
     32
  0
VERTEX
  8
MY3DLAYER
10
81.4154160982264
20
34.2360163710778
30
0.0
 70
     32
  0
VERTEX
  8
MY3DLAYER
10
78.7039563437926
20
34.5429740791269
30
0.0
 70
     32
  0
VERTEX
  8
MY3DLAYER
10
75.1227830832196
20
34.2155525238745
30
0.0
 70
     32
  0
VERTEX
  8
MY3DLAYER
10
72.5648021828103
20
33.2332878581173
30
0.0
 70
     32
  0
VERTEX
  8
MY3DLAYER
10
71.1221009549795
20
31.7598908594816
30
0.0
 70
     32
  0
VERTEX
  8
MY3DLAYER
10
69.9863574351978
20
29.3860845839018
30
0.0
 70
     32
  0
SEQEND
  0
POLYLINE
 8
LaserWeb
 66
     1
70
    8
 10
0.0
 20
 0.0
 30
0.0
  0
VERTEX
  8
MY3DLAYER
10
84.4338335607094
20
20.6275579809004
30
0.0
 70
     32
  0
VERTEX
  8
MY3DLAYER
10
77.2714870395634
20
18.4583901773533
30
0.0
 70
     32
  0
VERTEX
  8
MY3DLAYER
10
73.1275579809004
20
17.1180081855389
30
0.0
 70
     32
  0
VERTEX
  8
MY3DLAYER
10
70.8458390177353
20
15.7980900409277
30
0.0
 70
     32
  0
VERTEX
  8
MY3DLAYER
10
69.8021828103683
20
14.3553888130969
30
0.0
 70
     32
  0
VERTEX
  8
MY3DLAYER
10
69.4542974079126
20
12.7285129604366
30
0.0
 70
     32
  0
VERTEX
  8
MY3DLAYER
10
69.7970668485675
20
10.9430422919509
30
0.0
 70
     32
  0
VERTEX
  8
MY3DLAYER
10
70.825375170532
20
9.51568894952251
30
0.0
 70
     32
  0
VERTEX
  8
MY3DLAYER
10
72.518758526603
20
8.57946793997271
30
0.0
 70
     32
  0
VERTEX
  8
MY3DLAYER
10
74.856753069577
20
8.26739427012278
30
0.0
 70
     32
  0
VERTEX
  8
MY3DLAYER
10
77.5426330150068
20
8.60504774897681
30
0.0
 70
     32
  0
VERTEX
  8
MY3DLAYER
10
80.0341064120054
20
9.61800818553888
30
0.0
 70
     32
  0
VERTEX
  8
MY3DLAYER
10
82.0804911323329
20
11.1169849931787
30
0.0
 70
     32
  0
VERTEX
  8
MY3DLAYER
10
83.4311050477489
20
12.912687585266
30
0.0
 70
     32
  0
VERTEX
  8
MY3DLAYER
10
84.1831514324693
20
15.1483628922237
30
0.0
 70
     32
  0
VERTEX
  8
MY3DLAYER
10
84.4338335607094
20
17.9672578444748
30
0.0
 70
     32
  0
VERTEX
  8
MY3DLAYER
10
84.4338335607094
20
20.6275579809004
30
0.0
 70
     32
  0
SEQEND
  0
POLYLINE
 8
LaserWeb
 66
     1
70
    8
 10
0.0
 20
 0.0
 30
0.0
  0
VERTEX
  8
MY3DLAYER
10
107.762619372442
20
12.0736698499318
30
0.0
 70
     32
  0
VERTEX
  8
MY3DLAYER
10
124.297407912688
20
13.6289222373806
30
0.0
 70
     32
  0
VERTEX
  8
MY3DLAYER
10
125.525238744884
20
11.1016371077763
30
0.0
 70
     32
  0
VERTEX
  8
MY3DLAYER
10
127.162346521146
20
9.41336971350614
30
0.0
 70
     32
  0
VERTEX
  8
MY3DLAYER
10
129.31105047749
20
8.46180081855389
30
0.0
 70
     32
  0
VERTEX
  8
MY3DLAYER
10
132.073669849932
20
8.14461118690314
30
0.0
 70
     32
  0
VERTEX
  8
MY3DLAYER
10
135.051159618008
20
8.50240361316467
30
0.0
 70
     32
  0
VERTEX
  8
MY3DLAYER
10
137.271487039563
20
9.57578089194929
30
0.0
 70
     32
  0
VERTEX
  8
MY3DLAYER
10
138.345839017735
20
10.7708044949853
30
0.0
 70
     32
  0
VERTEX
  8
MY3DLAYER
10
138.703956343793
20
12.2315333679949
30
0.0
 70
     32
  0
VERTEX
  8
MY3DLAYER
10
138.233287858117
20
13.825439775787
30
0.0
 70
     32
  0
VERTEX
  8
MY3DLAYER
10
136.821282401091
20
15.0107190391051
30
0.0
 70
     32
  0
VERTEX
  8
MY3DLAYER
10
129.658935879945
20
16.7270836303211
30
0.0
 70
     32
  0
VERTEX
  8
MY3DLAYER
10
122.307298772169
20
18.1833460288679
30
0.0
 70
     32
  0
VERTEX
  8
MY3DLAYER
10
117.605729877217
20
19.5273820114656
30
0.0
 70
     32
  0
VERTEX
  8
MY3DLAYER
10
114.495225102319
20
21.2599066595101
30
0.0
 70
     32
  0
VERTEX
  8
MY3DLAYER
10
111.916780354707
20
23.881633805383
30
0.0
 70
     32
  0
VERTEX
  8
MY3DLAYER
10
110.182469304229
20
27.1626708484769
30
0.0
 70
     32
  0
VERTEX
  8
MY3DLAYER
10
109.604365620737
20
30.8731239391707
30
0.0
 70
     32
  0
VERTEX
  8
MY3DLAYER
10
110.228512960437
20
34.87007042233
30
0.0
 70
     32
  0
VERTEX
  8
MY3DLAYER
10
112.100954979536
20
38.2738903925168
30
0.0
 70
     32
  0
VERTEX
  8
MY3DLAYER
10
115.068212824011
20
40.9876239771407
30
0.0
 70
     32
  0
VERTEX
  8
MY3DLAYER
10
118.976807639836
20
42.914311303611
30
0.0
 70
     32
  0
VERTEX
  8
MY3DLAYER
10
124.103001364256
20
44.0641849200365
30
0.0
 70
     32
  0
VERTEX
  8
MY3DLAYER
10
130.723055934516
20
44.4474761255116
30
0.0
 70
     32
  0
VERTEX
  8
MY3DLAYER
10
137.481241473397
20
44.1507503410641
30
0.0
 70
     32
  0
VERTEX
  8
MY3DLAYER
10
142.203274215552
20
43.2605729877217
30
0.0
 70
     32
  0
VERTEX
  8
MY3DLAYER
10
145.600272851296
20
41.7462482946794
30
0.0
 70
     32
  0
VERTEX
  8
MY3DLAYER
10
148.383356070941
20
39.5770804911323
30
0.0
 70
     32
  0
VERTEX
  8
MY3DLAYER
10
150.649727148704
20
36.6405184174625
30
0.0
 70
     32
  0
VERTEX
  8
MY3DLAYER
10
152.496589358799
20
32.8240109140518
30
0.0
 70
     32
  0
VERTEX
  8
MY3DLAYER
10
136.698499317872
20
31.268758526603
30
0.0
 70
     32
  0
VERTEX
  8
MY3DLAYER
10
135.879945429741
20
33.0798090040928
30
0.0
 70
     32
  0
VERTEX
  8
MY3DLAYER
10
134.652114597544
20
34.3383356070941
30
0.0
 70
     32
  0
VERTEX
  8
MY3DLAYER
10
132.482946793997
20
35.3206002728513
30
0.0
 70
     32
  0
VERTEX
  8
MY3DLAYER
10
129.904502046385
20
35.6480218281037
30
0.0
 70
     32
  0
VERTEX
  8
MY3DLAYER
10
127.464188267394
20
35.3977456294498
30
0.0
 70
     32
  0
VERTEX
  8
MY3DLAYER
10
125.791268758527
20
34.6469170334882
30
0.0
 70
     32
  0
VERTEX
  8
MY3DLAYER
10
124.824351978172
20
33.5384588514799
30
0.0
 70
     32
  0
VERTEX
  8
MY3DLAYER
10
124.50204638472
20
32.2152926456717
30
0.0
 70
     32
  0
VERTEX
  8
MY3DLAYER
10
124.911323328786
20
30.8157927863107
30
0.0
 70
     32
  0
VERTEX
  8
MY3DLAYER
10
126.139154160982
20
29.8044562242204
30
0.0
 70
     32
  0
VERTEX
  8
MY3DLAYER
10
128.738062755798
20
29.0279671017177
30
0.0
 70
     32
  0
VERTEX
  8
MY3DLAYER
10
133.260572987722
20
28.3330083121056
30
0.0
 70
     32
  0
VERTEX
  8
MY3DLAYER
10
140.504774897681
20
27.2088770326456
30
0.0
 70
     32
  0
VERTEX
  8
MY3DLAYER
10
145.620736698499
20
25.7165591876146
30
0.0
 70
     32
  0
VERTEX
  8
MY3DLAYER
10
149.196793997271
20
23.6824366633271
30
0.0
 70
     32
  0
VERTEX
  8
MY3DLAYER
10
151.821282401091
20
20.9328913460975
30
0.0
 70
     32
  0
VERTEX
  8
MY3DLAYER
10
153.432810368349
20
17.6723183063335
30
0.0
 70
     32
  0
VERTEX
  8
MY3DLAYER
10
153.969986357435
20
14.105112614443
30
0.0
 70
     32
  0
VERTEX
  8
MY3DLAYER
10
153.402114597544
20
10.3947407096665
30
0.0
 70
     32
  0
VERTEX
  8
MY3DLAYER
10
151.698499317872
20
6.78652566907188
30
0.0
 70
     32
  0
VERTEX
  8
MY3DLAYER
10
148.772169167804
20
3.59221688722035
30
0.0
 70
     32
  0
VERTEX
  8
MY3DLAYER
10
144.536152796726
20
1.12356250965904
30
0.0
 70
     32
  0
VERTEX
  8
MY3DLAYER
10
138.760231923602
20
-0.455807871903113
30
0.0
 70
     32
  0
VERTEX
  8
MY3DLAYER
10
131.214188267394
20
-0.982264665757165
30
0.0
 70
     32
  0
VERTEX
  8
MY3DLAYER
10
125.68767053206
20
-0.769952251023195
30
0.0
 70
     32
  0
VERTEX
  8
MY3DLAYER
10
121.018076398363
20
-0.133015006821285
30
0.0
 70
     32
  0
VERTEX
  8
MY3DLAYER
10
117.205405866303
20
0.928547066848566
30
0.0
 70
     32
  0
VERTEX
  8
MY3DLAYER
10
114.24965893588
20
2.41473396998636
30
0.0
 70
     32
  0
VERTEX
  8
MY3DLAYER
10
111.948755115962
20
4.29229195088676
30
0.0
 70
     32
  0
VERTEX
  8
MY3DLAYER
10
110.100613915416
20
6.52796725784447
30
0.0
 70
     32
  0
VERTEX
  8
MY3DLAYER
10
108.705235334243
20
9.12175989085948
30
0.0
 70
     32
  0
VERTEX
  8
MY3DLAYER
10
107.762619372442
20
12.0736698499318
30
0.0
 70
     32
  0
SEQEND
  0
POLYLINE
 8
LaserWeb
 66
     1
70
    8
 10
0.0
 20
 0.0
 30
0.0
  0
VERTEX
  8
MY3DLAYER
10
210.163710777626
20
17.5989085948158
30
0.0
 70
     32
  0
VERTEX
  8
MY3DLAYER
10
176.766712141883
20
17.5989085948158
30
0.0
 70
     32
  0
VERTEX
  8
MY3DLAYER
10
177.534106412005
20
14.0995907230559
30
0.0
 70
     32
  0
VERTEX
  8
MY3DLAYER
10
178.93587994543
20
11.6234652114598
30
0.0
 70
     32
  0
VERTEX
  8
MY3DLAYER
10
181.718963165075
20
9.50545702592087
30
0.0
 70
     32
  0
VERTEX
  8
MY3DLAYER
10
185.238744884038
20
8.79945429740791
30
0.0
 70
     32
  0
VERTEX
  8
MY3DLAYER
10
187.633015006821
20
9.10641200545702
30
0.0
 70
     32
  0
VERTEX
  8
MY3DLAYER
10
189.904502046385
20
10.0272851296044
30
0.0
 70
     32
  0
VERTEX
  8
MY3DLAYER
10
192.81036834925
20
12.7694406548431
30
0.0
 70
     32
  0
VERTEX
  8
MY3DLAYER
10
209.222373806276
20
11.2551159618008
30
0.0
 70
     32
  0
VERTEX
  8
MY3DLAYER
10
205.068212824011
20
5.63267394270123
30
0.0
 70
     32
  0
VERTEX
  8
MY3DLAYER
10
202.699522510232
20
3.51594474761255
30
0.0
 70
     32
  0
VERTEX
  8
MY3DLAYER
10
200.136425648022
20
1.86221009549795
30
0.0
 70
     32
  0
VERTEX
  8
MY3DLAYER
10
197.18707366985
20
0.617752387448838
30
0.0
 70
     32
  0
VERTEX
  8
MY3DLAYER
10
193.659618008186
20
-0.271145975443386
30
0.0
 70
     32
  0
VERTEX
  8
MY3DLAYER
10
184.870395634379
20
-0.982264665757165
30
0.0
 70
     32
  0
VERTEX
  8
MY3DLAYER
10
177.155525238745
20
-0.373465211459757
30
0.0
 70
     32
  0
VERTEX
  8
MY3DLAYER
10
171.282401091405
20
1.45293315143247
30
0.0
 70
     32
  0
VERTEX
  8
MY3DLAYER
10
166.754774897681
20
4.6043656207367
30
0.0
 70
     32
  0
VERTEX
  8
MY3DLAYER
10
163.076398362892
20
9.18826739427012
30
0.0
 70
     32
  0
VERTEX
  8
MY3DLAYER
10
161.652881991814
20
11.9547237380628
30
0.0
 70
     32
  0
VERTEX
  8
MY3DLAYER
10
160.636084583902
20
14.9539563437926
30
0.0
 70
     32
  0
VERTEX
  8
MY3DLAYER
10
159.822646657572
20
21.6507503410641
30
0.0
 70
     32
  0
VERTEX
  8
MY3DLAYER
10
160.230644611187
20
26.5032401091405
30
0.0
 70
     32
  0
VERTEX
  8
MY3DLAYER
10
161.454638472033
20
30.8697135061392
30
0.0
 70
     32
  0
VERTEX
  8
MY3DLAYER
10
163.494628240109
20
34.75017053206
30
0.0
 70
     32
  0
VERTEX
  8
MY3DLAYER
10
166.350613915416
20
38.1446111869031
30
0.0
 70
     32
  0
VERTEX
  8
MY3DLAYER
10
169.925392223738
20
40.9021145975443
30
0.0
 70
     32
  0
VERTEX
  8
MY3DLAYER
10
174.121759890859
20
42.8717598908595
30
0.0
 70
     32
  0
VERTEX
  8
MY3DLAYER
10
178.93971691678
20
44.0535470668486
30
0.0
 70
     32
  0
VERTEX
  8
MY3DLAYER
10
184.379263301501
20
44.4474761255116
30
0.0
 70
     32
  0
VERTEX
  8
MY3DLAYER
10
192.728512960437
20
43.7414733969986
30
0.0
 70
     32
  0
VERTEX
  8
MY3DLAYER
10
196.166439290587
20
42.8589699863574
30
0.0
 70
     32
  0
VERTEX
  8
MY3DLAYER
10
199.113233287858
20
41.6234652114598
30
0.0
 70
     32
  0
VERTEX
  8
MY3DLAYER
10
203.871077762619
20
38.1650750341064
30
0.0
 70
     32
  0
VERTEX
  8
MY3DLAYER
10
207.339699863574
20
33.4379263301501
30
0.0
 70
     32
  0
VERTEX
  8
MY3DLAYER
10
208.575204638472
20
30.5550818553888
30
0.0
 70
     32
  0
VERTEX
  8
MY3DLAYER
10
209.457708049113
20
27.2680763983629
30
0.0
 70
     32
  0
VERTEX
  8
MY3DLAYER
10
210.163710777626
20
19.4815825375171
30
0.0
 70
     32
  0
VERTEX
  8
MY3DLAYER
10
210.163710777626
20
17.5989085948158
30
0.0
 70
     32
  0
SEQEND
  0
POLYLINE
 8
LaserWeb
 66
     1
70
    8
 10
0.0
 20
 0.0
 30
0.0
  0
VERTEX
  8
MY3DLAYER
10
193.219645293315
20
25.5798090040928
30
0.0
 70
     32
  0
VERTEX
  8
MY3DLAYER
10
192.324351978172
20
29.7237380627558
30
0.0
 70
     32
  0
VERTEX
  8
MY3DLAYER
10
190.620736698499
20
32.4965893587995
30
0.0
 70
     32
  0
VERTEX
  8
MY3DLAYER
10
188.180422919509
20
34.0620736698499
30
0.0
 70
     32
  0
VERTEX
  8
MY3DLAYER
10
185.075034106412
20
34.5839017735334
30
0.0
 70
     32
  0
VERTEX
  8
MY3DLAYER
10
181.504092769441
20
33.7960436562074
30
0.0
 70
     32
  0
VERTEX
  8
MY3DLAYER
10
178.731241473397
20
31.4324693042292
30
0.0
 70
     32
  0
VERTEX
  8
MY3DLAYER
10
177.493178717599
20
28.9870395634379
30
0.0
 70
     32
  0
VERTEX
  8
MY3DLAYER
10
176.807639836289
20
25.5798090040928
30
0.0
 70
     32
  0
VERTEX
  8
MY3DLAYER
10
193.219645293315
20
25.5798090040928
30
0.0
 70
     32
  0
SEQEND
  0
POLYLINE
 8
LaserWeb
 66
     1
70
    8
 10
0.0
 20
 0.0
 30
0.0
  0
VERTEX
  8
MY3DLAYER
10
217.980900409277
20
43.4652114597544
30
0.0
 70
     32
  0
VERTEX
  8
MY3DLAYER
10
233.574351978172
20
43.4652114597544
30
0.0
 70
     32
  0
VERTEX
  8
MY3DLAYER
10
233.574351978172
20
36.343792633015
30
0.0
 70
     32
  0
VERTEX
  8
MY3DLAYER
10
235.861186903138
20
40.2472714870396
30
0.0
 70
     32
  0
VERTEX
  8
MY3DLAYER
10
238.219645293315
20
42.7080491132333
30
0.0
 70
     32
  0
VERTEX
  8
MY3DLAYER
10
240.895293315143
20
44.012619372442
30
0.0
 70
     32
  0
VERTEX
  8
MY3DLAYER
10
244.133697135061
20
44.4474761255116
30
0.0
 70
     32
  0
VERTEX
  8
MY3DLAYER
10
247.991132332879
20
43.8744884038199
30
0.0
 70
     32
  0
VERTEX
  8
MY3DLAYER
10
252.196452933151
20
42.1555252387449
30
0.0
 70
     32
  0
VERTEX
  8
MY3DLAYER
10
247.039563437926
20
30.2864938608458
30
0.0
 70
     32
  0
VERTEX
  8
MY3DLAYER
10
242.37380627558
20
31.5143246930423
30
0.0
 70
     32
  0
VERTEX
  8
MY3DLAYER
10
239.467939972715
20
30.8390177353342
30
0.0
 70
     32
  0
VERTEX
  8
MY3DLAYER
10
237.298772169168
20
28.8130968622101
30
0.0
 70
     32
  0
VERTEX
  8
MY3DLAYER
10
236.170702592087
20
26.4955661664393
30
0.0
 70
     32
  0
VERTEX
  8
MY3DLAYER
10
235.364938608458
20
23.3492496589359
30
0.0
 70
     32
  0
VERTEX
  8
MY3DLAYER
10
234.720327421555
20
14.5702592087312
30
0.0
 70
     32
  0
VERTEX
  8
MY3DLAYER
10
234.720327421555
20
-2.29122276707017e-015
30
0.0
 70
     32
  0
VERTEX
  8
MY3DLAYER
10
217.980900409277
20
-2.29122276707017e-015
30
0.0
 70
     32
  0
VERTEX
  8
MY3DLAYER
10
217.980900409277
20
43.4652114597544
30
0.0
 70
     32
  0
SEQEND
  0
POLYLINE
 8
LaserWeb
 66
     1
70
    8
 10
0.0
 20
 0.0
 30
0.0
  0
VERTEX
  8
MY3DLAYER
10
249.945429740791
20
60.0
30
0.0
 70
     32
  0
VERTEX
  8
MY3DLAYER
10
267.555382118381
20
60.0
30
0.0
 70
     32
  0
VERTEX
  8
MY3DLAYER
10
273.919313854931
20
26.49386063767
30
0.0
 70
     32
  0
VERTEX
  8
MY3DLAYER
10
283.174819425867
20
60.0
30
0.0
 70
     32
  0
VERTEX
  8
MY3DLAYER
10
300.720456944319
20
60.0
30
0.0
 70
     32
  0
VERTEX
  8
MY3DLAYER
10
310.023386956562
20
26.4555315171225
30
0.0
 70
     32
  0
VERTEX
  8
MY3DLAYER
10
316.370427650774
20
60.0
30
0.0
 70
     32
  0
VERTEX
  8
MY3DLAYER
10
333.888130968622
20
60.0
30
0.0
 70
     32
  0
VERTEX
  8
MY3DLAYER
10
320.662638415744
20
-2.29122276707017e-015
30
0.0
 70
     32
  0
VERTEX
  8
MY3DLAYER
10
302.481647402983
20
-2.29122276707017e-015
30
0.0
 70
     32
  0
VERTEX
  8
MY3DLAYER
10
291.958032792782
20
37.7762619372442
30
0.0
 70
     32
  0
VERTEX
  8
MY3DLAYER
10
281.475345876988
20
-2.29122276707017e-015
30
0.0
 70
     32
  0
VERTEX
  8
MY3DLAYER
10
263.29435423972
20
-2.29122276707017e-015
30
0.0
 70
     32
  0
VERTEX
  8
MY3DLAYER
10
249.945429740791
20
60.0
30
0.0
 70
     32
  0
SEQEND
  0
POLYLINE
 8
LaserWeb
 66
     1
70
    8
 10
0.0
 20
 0.0
 30
0.0
  0
VERTEX
  8
MY3DLAYER
10
387.094133697135
20
17.5989085948158
30
0.0
 70
     32
  0
VERTEX
  8
MY3DLAYER
10
353.697135061392
20
17.5989085948158
30
0.0
 70
     32
  0
VERTEX
  8
MY3DLAYER
10
354.464529331514
20
14.0995907230559
30
0.0
 70
     32
  0
VERTEX
  8
MY3DLAYER
10
355.866302864939
20
11.6234652114598
30
0.0
 70
     32
  0
VERTEX
  8
MY3DLAYER
10
358.649386084584
20
9.50545702592087
30
0.0
 70
     32
  0
VERTEX
  8
MY3DLAYER
10
362.169167803547
20
8.79945429740791
30
0.0
 70
     32
  0
VERTEX
  8
MY3DLAYER
10
364.56343792633
20
9.10641200545702
30
0.0
 70
     32
  0
VERTEX
  8
MY3DLAYER
10
366.834924965894
20
10.0272851296044
30
0.0
 70
     32
  0
VERTEX
  8
MY3DLAYER
10
369.740791268759
20
12.7694406548431
30
0.0
 70
     32
  0
VERTEX
  8
MY3DLAYER
10
386.152796725784
20
11.2551159618008
30
0.0
 70
     32
  0
VERTEX
  8
MY3DLAYER
10
381.99863574352
20
5.63267394270123
30
0.0
 70
     32
  0
VERTEX
  8
MY3DLAYER
10
379.629945429741
20
3.51594474761255
30
0.0
 70
     32
  0
VERTEX
  8
MY3DLAYER
10
377.066848567531
20
1.86221009549795
30
0.0
 70
     32
  0
VERTEX
  8
MY3DLAYER
10
374.117496589359
20
0.617752387448838
30
0.0
 70
     32
  0
VERTEX
  8
MY3DLAYER
10
370.590040927694
20
-0.271145975443386
30
0.0
 70
     32
  0
VERTEX
  8
MY3DLAYER
10
361.800818553888
20
-0.982264665757165
30
0.0
 70
     32
  0
VERTEX
  8
MY3DLAYER
10
354.085948158254
20
-0.373465211459757
30
0.0
 70
     32
  0
VERTEX
  8
MY3DLAYER
10
348.212824010914
20
1.45293315143247
30
0.0
 70
     32
  0
VERTEX
  8
MY3DLAYER
10
343.68519781719
20
4.6043656207367
30
0.0
 70
     32
  0
VERTEX
  8
MY3DLAYER
10
340.006821282401
20
9.18826739427012
30
0.0
 70
     32
  0
VERTEX
  8
MY3DLAYER
10
338.583304911323
20
11.9547237380628
30
0.0
 70
     32
  0
VERTEX
  8
MY3DLAYER
10
337.566507503411
20
14.9539563437926
30
0.0
 70
     32
  0
VERTEX
  8
MY3DLAYER
10
336.75306957708
20
21.6507503410641
30
0.0
 70
     32
  0
VERTEX
  8
MY3DLAYER
10
337.161067530696
20
26.5032401091405
30
0.0
 70
     32
  0
VERTEX
  8
MY3DLAYER
10
338.385061391542
20
30.8697135061392
30
0.0
 70
     32
  0
VERTEX
  8
MY3DLAYER
10
340.425051159618
20
34.75017053206
30
0.0
 70
     32
  0
VERTEX
  8
MY3DLAYER
10
343.281036834925
20
38.1446111869031
30
0.0
 70
     32
  0
VERTEX
  8
MY3DLAYER
10
346.855815143247
20
40.9021145975443
30
0.0
 70
     32
  0
VERTEX
  8
MY3DLAYER
10
351.052182810368
20
42.8717598908595
30
0.0
 70
     32
  0
VERTEX
  8
MY3DLAYER
10
355.870139836289
20
44.0535470668486
30
0.0
 70
     32
  0
VERTEX
  8
MY3DLAYER
10
361.30968622101
20
44.4474761255116
30
0.0
 70
     32
  0
VERTEX
  8
MY3DLAYER
10
369.658935879945
20
43.7414733969986
30
0.0
 70
     32
  0
VERTEX
  8
MY3DLAYER
10
373.096862210095
20
42.8589699863574
30
0.0
 70
     32
  0
VERTEX
  8
MY3DLAYER
10
376.043656207367
20
41.6234652114598
30
0.0
 70
     32
  0
VERTEX
  8
MY3DLAYER
10
380.801500682128
20
38.1650750341064
30
0.0
 70
     32
  0
VERTEX
  8
MY3DLAYER
10
384.270122783083
20
33.4379263301501
30
0.0
 70
     32
  0
VERTEX
  8
MY3DLAYER
10
385.505627557981
20
30.5550818553888
30
0.0
 70
     32
  0
VERTEX
  8
MY3DLAYER
10
386.388130968622
20
27.2680763983629
30
0.0
 70
     32
  0
VERTEX
  8
MY3DLAYER
10
387.094133697135
20
19.4815825375171
30
0.0
 70
     32
  0
VERTEX
  8
MY3DLAYER
10
387.094133697135
20
17.5989085948158
30
0.0
 70
     32
  0
SEQEND
  0
POLYLINE
 8
LaserWeb
 66
     1
70
    8
 10
0.0
 20
 0.0
 30
0.0
  0
VERTEX
  8
MY3DLAYER
10
370.150068212824
20
25.5798090040928
30
0.0
 70
     32
  0
VERTEX
  8
MY3DLAYER
10
369.254774897681
20
29.7237380627558
30
0.0
 70
     32
  0
VERTEX
  8
MY3DLAYER
10
367.551159618008
20
32.4965893587995
30
0.0
 70
     32
  0
VERTEX
  8
MY3DLAYER
10
365.110845839018
20
34.0620736698499
30
0.0
 70
     32
  0
VERTEX
  8
MY3DLAYER
10
362.005457025921
20
34.5839017735334
30
0.0
 70
     32
  0
VERTEX
  8
MY3DLAYER
10
358.43451568895
20
33.7960436562074
30
0.0
 70
     32
  0
VERTEX
  8
MY3DLAYER
10
355.661664392906
20
31.4324693042292
30
0.0
 70
     32
  0
VERTEX
  8
MY3DLAYER
10
354.423601637108
20
28.9870395634379
30
0.0
 70
     32
  0
VERTEX
  8
MY3DLAYER
10
353.738062755798
20
25.5798090040928
30
0.0
 70
     32
  0
VERTEX
  8
MY3DLAYER
10
370.150068212824
20
25.5798090040928
30
0.0
 70
     32
  0
SEQEND
  0
POLYLINE
 8
LaserWeb
 66
     1
70
    8
 10
0.0
 20
 0.0
 30
0.0
  0
VERTEX
  8
MY3DLAYER
10
394.829467939973
20
60.0
30
0.0
 70
     32
  0
VERTEX
  8
MY3DLAYER
10
411.650750341064
20
60.0
30
0.0
 70
     32
  0
VERTEX
  8
MY3DLAYER
10
411.650750341064
20
39.2087312414734
30
0.0
 70
     32
  0
VERTEX
  8
MY3DLAYER
10
414.316166439291
20
41.5006821282401
30
0.0
 70
     32
  0
VERTEX
  8
MY3DLAYER
10
417.319236016371
20
43.137789904502
30
0.0
 70
     32
  0
VERTEX
  8
MY3DLAYER
10
420.659959072306
20
44.1200545702592
30
0.0
 70
     32
  0
VERTEX
  8
MY3DLAYER
10
424.338335607094
20
44.4474761255116
30
0.0
 70
     32
  0
VERTEX
  8
MY3DLAYER
10
428.136937244202
20
44.0906377899045
30
0.0
 70
     32
  0
VERTEX
  8
MY3DLAYER
10
431.592769440655
20
43.0201227830832
30
0.0
 70
     32
  0
VERTEX
  8
MY3DLAYER
10
434.705832196453
20
41.2359311050478
30
0.0
 70
     32
  0
VERTEX
  8
MY3DLAYER
10
437.476125511596
20
38.7380627557981
30
0.0
 70
     32
  0
VERTEX
  8
MY3DLAYER
10
439.75017053206
20
35.5725613915416
30
0.0
 70
     32
  0
VERTEX
  8
MY3DLAYER
10
441.37448840382
20
31.7854706684857
30
0.0
 70
     32
  0
VERTEX
  8
MY3DLAYER
10
442.349079126876
20
27.3767905866303
30
0.0
 70
     32
  0
VERTEX
  8
MY3DLAYER
10
442.673942701228
20
22.3465211459754
30
0.0
 70
     32
  0
VERTEX
  8
MY3DLAYER
10
442.080491132333
20
15.649727148704
30
0.0
 70
     32
  0
VERTEX
  8
MY3DLAYER
10
440.300136425648
20
9.80218281036835
30
0.0
 70
     32
  0
VERTEX
  8
MY3DLAYER
10
437.471009549795
20
5.06480218281037
30
0.0
 70
     32
  0
VERTEX
  8
MY3DLAYER
10
433.731241473397
20
1.69849931787176
30
0.0
 70
     32
  0
VERTEX
  8
MY3DLAYER
10
429.305934515689
20
-0.312073669849934
30
0.0
 70
     32
  0
VERTEX
  8
MY3DLAYER
10
424.420190995907
20
-0.982264665757165
30
0.0
 70
     32
  0
VERTEX
  8
MY3DLAYER
10
420.225102319236
20
-0.511596180081858
30
0.0
 70
     32
  0
VERTEX
  8
MY3DLAYER
10
416.398362892224
20
0.900409276944063
30
0.0
 70
     32
  0
VERTEX
  8
MY3DLAYER
10
413.533424283765
20
3.01841746248294
30
0.0
 70
     32
  0
VERTEX
  8
MY3DLAYER
10
410.422919508868
20
6.4256480218281
30
0.0
 70
     32
  0
VERTEX
  8
MY3DLAYER
10
410.422919508868
20
-2.29122276707017e-015
30
0.0
 70
     32
  0
VERTEX
  8
MY3DLAYER
10
394.829467939973
20
-2.29122276707017e-015
30
0.0
 70
     32
  0
VERTEX
  8
MY3DLAYER
10
394.829467939973
20
60.0
30
0.0
 70
     32
  0
SEQEND
  0
POLYLINE
 8
LaserWeb
 66
     1
70
    8
 10
0.0
 20
 0.0
 30
0.0
  0
VERTEX
  8
MY3DLAYER
10
411.527967257844
20
21.8553888130969
30
0.0
 70
     32
  0
VERTEX
  8
MY3DLAYER
10
412.054911323329
20
17.0208049113233
30
0.0
 70
     32
  0
VERTEX
  8
MY3DLAYER
10
413.635743519782
20
13.731241473397
30
0.0
 70
     32
  0
VERTEX
  8
MY3DLAYER
10
416.024897680764
20
11.843451568895
30
0.0
 70
     32
  0
VERTEX
  8
MY3DLAYER
10
418.976807639836
20
11.2141882673943
30
0.0
 70
     32
  0
VERTEX
  8
MY3DLAYER
10
421.724079126876
20
11.8332196452933
30
0.0
 70
     32
  0
VERTEX
  8
MY3DLAYER
10
423.990450204638
20
13.6903137789905
30
0.0
 70
     32
  0
VERTEX
  8
MY3DLAYER
10
425.509890859482
20
17.0105729877217
30
0.0
 70
     32
  0
VERTEX
  8
MY3DLAYER
10
426.016371077763
20
22.0190995907231
30
0.0
 70
     32
  0
VERTEX
  8
MY3DLAYER
10
425.520122783083
20
26.4904502046385
30
0.0
 70
     32
  0
VERTEX
  8
MY3DLAYER
10
424.031377899045
20
29.5907230559345
30
0.0
 70
     32
  0
VERTEX
  8
MY3DLAYER
10
421.836630286494
20
31.4017735334243
30
0.0
 70
     32
  0
VERTEX
  8
MY3DLAYER
10
419.222373806276
20
32.0054570259209
30
0.0
 70
     32
  0
VERTEX
  8
MY3DLAYER
10
416.137448840382
20
31.3761937244202
30
0.0
 70
     32
  0
VERTEX
  8
MY3DLAYER
10
413.676671214188
20
29.4884038199181
30
0.0
 70
     32
  0
VERTEX
  8
MY3DLAYER
10
412.065143246931
20
26.3216234652115
30
0.0
 70
     32
  0
VERTEX
  8
MY3DLAYER
10
411.527967257844
20
21.8553888130969
30
0.0
 70
     32
  0
SEQEND
 0
ENDSEC
 0
EOF
